<?xml version="1.0" encoding="UTF-8"?>
<svg id="Layer_1" data-name="Layer 1" xmlns="http://www.w3.org/2000/svg" xmlns:xlink="http://www.w3.org/1999/xlink" viewBox="0 0 1086.69 289.6">
  <defs>
    <style>
      .cls-1 {
        clip-path: url(#clippath-2);
      }

      .cls-2 {
        isolation: isolate;
      }

      .cls-3 {
        clip-path: url(#clippath-6);
      }

      .cls-4 {
        clip-path: url(#clippath-7);
      }

      .cls-5 {
        clip-path: url(#clippath-1);
      }

      .cls-6 {
        clip-path: url(#clippath-4);
      }

      .cls-7 {
        fill: none;
        stroke: #f7943e;
        stroke-miterlimit: 10;
      }

      .cls-8 {
        clip-path: url(#clippath);
      }

      .cls-9 {
        clip-path: url(#clippath-3);
      }

      .cls-10 {
        opacity: .6;
      }

      .cls-11 {
        clip-path: url(#clippath-5);
      }

      .cls-12 {
        fill: #fafbfc;
        stroke-width: 0px;
      }

      .cls-13 {
        opacity: .3;
      }
    </style>
    <clipPath id="clippath">
      <path class="cls-7" d="M196.39,41.85l57.01,136.29c-12.43,7.8-29.65,17.91-50.83,30.28l-57.01-136.29c21.17-12.37,38.4-22.48,50.83-30.28Z"/>
    </clipPath>
    <clipPath id="clippath-1">
      <path class="cls-7" d="M196.88,41.46l57.01,136.29c.43,8.31,2.13,19.67,4.31,33.66l-57.01-136.29c-2.18-13.99-3.87-25.36-4.31-33.66Z"/>
    </clipPath>
    <clipPath id="clippath-2">
      <path class="cls-7" d="M474.67,40.8l63.05,150.72c-9.34,13.85-19.51,27.35-23.5,32.58l-63.05-150.72c3.99-5.23,14.16-18.73,23.5-32.58Z"/>
    </clipPath>
    <clipPath id="clippath-3">
      <path class="cls-7" d="M534.14,9.87l63.05,150.72c1.33,23.59.77,51.85-1.36,68.91l-63.05-150.72c2.13-17.06,2.7-45.32,1.36-68.91Z"/>
    </clipPath>
    <clipPath id="clippath-4">
      <path class="cls-7" d="M639.05,15.43l63.05,150.72c-28.98,16.63-81.34,47.04-106.43,63.8l-63.05-150.72c25.09-16.77,77.46-47.17,106.43-63.8Z"/>
    </clipPath>
    <clipPath id="clippath-5">
      <path class="cls-7" d="M475.24,39.93l63.05,150.72c-1.38,17.03-1.93,39.41-2.42,59.15-.12,4.8-.23,9.46-.35,13.84l-63.05-150.72c.12-4.38.24-9.04.35-13.84.48-19.75,1.03-42.12,2.42-59.15Z"/>
    </clipPath>
    <clipPath id="clippath-6">
      <path class="cls-7" d="M642.98,47.44l63.05,150.72c-29.86,19.36-71.82,44.53-112.78,68.88l-63.05-150.72c40.96-24.34,82.92-49.51,112.78-68.88Z"/>
    </clipPath>
    <clipPath id="clippath-7">
      <path class="cls-7" d="M644,46.77l63.05,150.72c-8.41,10.24-18.1,22.48-26.58,33.58l-63.05-150.72c8.48-11.11,18.17-23.35,26.58-33.58Z"/>
    </clipPath>
  </defs>
  <g>
    <g class="cls-13">
      <path class="cls-12" d="M298.97,123.67l20.67,102.07-60.82-3.19-4.88-23.58-97.76-5.12-37.99,21.34-56.88-2.98,164.98-92.34,72.68,3.81ZM181.49,177.27l73.14,3.83c-3.36-21.49-5.47-35.22-5.27-44.28l-.38-.02c-13.91,9.22-38.9,23.76-67.49,40.47"/>
    </g>
    <g class="cls-10">
      <path class="cls-12" d="M280.72,91.65l20.68,102.06-60.82-3.19-4.88-23.58-97.75-5.12-38,21.33-56.88-2.98,164.98-92.33,72.67,3.81ZM163.24,145.25l73.14,3.83c-3.36-21.48-5.47-35.21-5.27-44.28l-.38-.02c-13.91,9.23-38.9,23.76-67.49,40.47"/>
    </g>
    <path class="cls-12" d="M268.17,56.4l20.68,102.07-60.83-3.19-4.87-23.58-97.76-5.12-37.99,21.34-56.88-2.98L195.5,52.6l72.67,3.81ZM150.69,110.01l73.14,3.83c-3.35-21.49-5.47-35.21-5.27-44.28l-.39-.02c-13.91,9.23-38.9,23.76-67.49,40.47"/>
    <g class="cls-2">
      <polygon class="cls-7" points="179 14.47 236.02 150.76 59.86 249.35 2.85 113.06 179 14.47"/>
      <polygon class="cls-7" points="256.12 18.51 313.13 154.8 236.02 150.76 179 14.47 256.12 18.51"/>
      <polygon class="cls-7" points="196.87 41.22 253.88 177.5 253.89 177.75 196.88 41.46 196.87 41.22"/>
      <g class="cls-2">
        <g class="cls-8">
          <g class="cls-2">
            <path class="cls-7" d="M196.39,41.85l57.01,136.29c-12.43,7.8-29.65,17.91-50.83,30.28l-57.01-136.29c21.17-12.37,38.4-22.48,50.83-30.28"/>
          </g>
        </g>
        <path class="cls-7" d="M196.39,41.85l57.01,136.29c-12.43,7.8-29.65,17.91-50.83,30.28l-57.01-136.29c21.17-12.37,38.4-22.48,50.83-30.28Z"/>
      </g>
      <polygon class="cls-7" points="70.36 116.94 127.38 253.23 58.77 249.64 1.75 113.35 70.36 116.94"/>
      <polygon class="cls-7" points="108.36 95.61 165.37 231.9 127.38 253.23 70.36 116.94 108.36 95.61"/>
      <g class="cls-2">
        <g class="cls-5">
          <g class="cls-2">
            <path class="cls-7" d="M196.88,41.46l57.01,136.29c.01.28.03.56.05.84l-57.01-136.29c-.02-.28-.03-.57-.05-.84"/>
            <path class="cls-7" d="M196.92,42.3l57.01,136.29c.5,8.23,2.16,19.3,4.26,32.82l-57.01-136.29c-2.1-13.52-3.76-24.59-4.26-32.82"/>
          </g>
        </g>
        <path class="cls-7" d="M196.88,41.46l57.01,136.29c.43,8.31,2.13,19.67,4.31,33.66l-57.01-136.29c-2.18-13.99-3.87-25.36-4.31-33.66Z"/>
      </g>
      <polygon class="cls-7" points="201.18 75.12 258.2 211.41 258.24 211.68 201.23 75.39 201.18 75.12"/>
      <polygon class="cls-7" points="201.23 75.39 258.24 211.68 201.52 208.71 144.51 72.42 201.23 75.39"/>
      <polygon class="cls-7" points="201.23 100.47 258.24 236.76 165.37 231.9 108.36 95.61 201.23 100.47"/>
      <polygon class="cls-7" points="201.7 100.16 258.71 236.45 263.58 260.03 206.57 123.74 201.7 100.16"/>
      <path class="cls-7" d="M256.59,18.19l22.22,109.67-72.71-3.81-4.87-23.58-92.87-4.87-37.99,21.34L1.75,113.35,179.03,14.13l77.56,4.06ZM201.7,100.16l4.87,23.58,71.63,3.75-22.07-108.98-77.12-4.04L2.85,113.06l67.54,3.54,38-21.33,93.31,4.89"/>
      <path class="cls-7" d="M196.88,41.46c.43,8.31,2.13,19.67,4.31,33.66l.04.27-56.72-2.97.42-.24c21.56-12.6,39.05-22.86,51.58-30.74l.36-.23v.24ZM145.56,72.13l55.08,2.89c-2.14-13.74-3.81-24.93-4.25-33.17-12.43,7.8-29.65,17.91-50.83,30.28"/>
      <polygon class="cls-7" points="256.59 18.19 313.6 154.48 335.82 264.16 278.81 127.87 256.59 18.19"/>
      <polygon class="cls-7" points="278.81 127.87 335.82 264.16 263.11 260.35 206.1 124.06 278.81 127.87"/>
    </g>
  </g>
  <g>
    <polygon class="cls-12" points="1030.94 47.83 937.21 170.61 867.04 166.93 960.77 44.15 1030.94 47.83"/>
    <g class="cls-10">
      <polygon class="cls-12" points="1050.44 94.06 956.72 216.84 886.55 213.17 980.27 90.38 1050.44 94.06"/>
    </g>
    <g class="cls-13">
      <polygon class="cls-12" points="1076.64 130.85 982.92 253.63 912.75 249.96 1006.47 127.17 1076.64 130.85"/>
    </g>
    <g class="cls-2">
      <polygon class="cls-7" points="1028.4 4.95 1086.12 148.84 989.84 280.36 932.11 136.47 1028.4 4.95"/>
      <polygon class="cls-7" points="932.11 136.47 989.84 280.36 908.6 275.92 850.87 132.03 932.11 136.47"/>
      <polygon class="cls-7" points="1028.4 4.95 932.11 136.47 850.87 132.03 947.15 .51 1028.4 4.95"/>
    </g>
  </g>
  <g>
    <g class="cls-13">
      <path class="cls-12" d="M783.59,152.04l-75.29,98.63-56.68-2.97,28.24-37c12.84-16.83,27.98-35.66,37.68-46.74l-1.88-.1c-28.14,19.46-80.4,50.89-130.02,80.38l-50.05-2.62c.78-28.02,1.24-66.93,4.35-87.25l-1.83-.1c-6.51,11.69-20.87,32.05-33.78,48.96l-26.97,35.33-53.57-2.81,75.29-98.63,87.47,4.58c1.52,26.88.6,60.45-2.46,75.59,16.99-12.59,73.23-45.59,115.2-69.68l84.29,4.42Z"/>
    </g>
    <g class="cls-10">
      <path class="cls-12" d="M762.83,103.77l-75.29,98.63-56.68-2.97,28.24-37c12.84-16.83,27.98-35.66,37.68-46.74l-1.88-.1c-28.14,19.46-80.4,50.89-130.02,80.38l-50.05-2.62c.78-28.02,1.24-66.93,4.35-87.25l-1.83-.1c-6.51,11.69-20.87,32.05-33.78,48.96l-26.97,35.33-53.57-2.81,75.29-98.63,87.47,4.58c1.52,26.88.6,60.45-2.46,75.59,16.99-12.59,73.23-45.59,115.2-69.68l84.29,4.42Z"/>
    </g>
    <path class="cls-12" d="M739.13,55.86l-75.29,98.63-56.69-2.97,28.24-37c12.84-16.83,27.98-35.66,37.68-46.74l-1.88-.1c-28.14,19.46-80.39,50.89-130.02,80.38l-50.05-2.62c.78-28.02,1.24-66.93,4.35-87.25l-1.83-.1c-6.51,11.69-20.86,32.05-33.78,48.97l-26.97,35.33-53.57-2.81,75.29-98.63,87.46,4.58c1.52,26.88.6,60.45-2.46,75.59,17-12.6,73.24-45.59,115.2-69.68l84.3,4.42Z"/>
    <g class="cls-2">
      <polygon class="cls-7" points="533.54 8.38 596.59 159.1 502.25 154.16 439.2 3.44 533.54 8.38"/>
      <polygon class="cls-7" points="534.04 8.06 597.09 158.78 597.19 160.59 534.14 9.87 534.04 8.06"/>
      <polygon class="cls-7" points="475.3 39.18 538.35 189.9 538.29 190.65 475.24 39.93 475.3 39.18"/>
      <polygon class="cls-7" points="439.2 3.44 502.25 154.16 421.87 259.47 358.82 108.75 439.2 3.44"/>
      <g class="cls-2">
        <g class="cls-1">
          <g class="cls-2">
            <path class="cls-7" d="M474.67,40.8l63.05,150.72c-9.34,13.85-19.51,27.35-23.5,32.58l-63.05-150.72c3.99-5.23,14.16-18.73,23.5-32.58"/>
          </g>
        </g>
        <path class="cls-7" d="M474.67,40.8l63.05,150.72c-9.34,13.85-19.51,27.35-23.5,32.58l-63.05-150.72c3.99-5.23,14.16-18.73,23.5-32.58Z"/>
      </g>
      <polygon class="cls-7" points="641.48 14.04 704.53 164.76 702.1 166.15 639.05 15.43 641.48 14.04"/>
      <polygon class="cls-7" points="451.17 73.38 514.22 224.1 484.45 263.1 421.4 112.38 451.17 73.38"/>
      <polygon class="cls-7" points="421.4 112.38 484.45 263.1 421.17 259.78 358.12 109.06 421.4 112.38"/>
      <g class="cls-2">
        <g class="cls-9">
          <g class="cls-2">
            <path class="cls-7" d="M534.14,9.87l63.05,150.72c.87,15.41.93,32.81.28,47.78l-63.05-150.72c.66-14.97.59-32.37-.28-47.78"/>
            <path class="cls-7" d="M534.42,57.64l63.05,150.72c-.35,7.95-.9,15.22-1.64,21.13l-63.05-150.72c.74-5.92,1.29-13.18,1.64-21.13"/>
          </g>
        </g>
        <path class="cls-7" d="M534.14,9.87l63.05,150.72c1.33,23.59.77,51.85-1.36,68.91l-63.05-150.72c2.13-17.06,2.7-45.32,1.36-68.91Z"/>
      </g>
      <g class="cls-2">
        <g class="cls-6">
          <g class="cls-2">
            <path class="cls-7" d="M639.05,15.43l63.05,150.72c-6.82,3.92-14.94,8.6-23.7,13.68l-63.05-150.72c8.75-5.09,16.87-9.77,23.7-13.68"/>
            <path class="cls-7" d="M615.35,29.12l63.05,150.72c-26.37,15.32-58.51,34.32-78.33,47.22l-63.05-150.72c19.82-12.9,51.96-31.9,78.33-47.22"/>
            <path class="cls-7" d="M537.02,76.34l63.05,150.72c-1.54,1.01-3.01,1.97-4.4,2.9l-63.05-150.72c1.39-.93,2.86-1.89,4.4-2.9"/>
          </g>
        </g>
        <path class="cls-7" d="M639.05,15.43l63.05,150.72c-28.98,16.63-81.34,47.04-106.43,63.8l-63.05-150.72c25.09-16.77,77.46-47.17,106.43-63.8Z"/>
      </g>
      <g class="cls-2">
        <g class="cls-11">
          <g class="cls-2">
            <path class="cls-7" d="M475.24,39.93l63.05,150.72c-.51,6.29-.91,13.3-1.23,20.64l-63.05-150.72c.32-7.34.72-14.36,1.23-20.64"/>
            <path class="cls-7" d="M474.01,60.57l63.05,150.72c-.55,12.55-.88,26.05-1.19,38.51-.12,4.8-.23,9.46-.35,13.84l-63.05-150.72c.12-4.38.24-9.04.35-13.84.3-12.46.64-25.96,1.19-38.51"/>
          </g>
        </g>
        <path class="cls-7" d="M475.24,39.93l63.05,150.72c-1.38,17.03-1.93,39.41-2.42,59.15-.12,4.8-.23,9.46-.35,13.84l-63.05-150.72c.12-4.38.24-9.04.35-13.84.48-19.75,1.03-42.12,2.42-59.15Z"/>
      </g>
      <polygon class="cls-7" points="472.47 112.92 535.53 263.64 535.48 265.42 472.43 114.7 472.47 112.92"/>
      <polygon class="cls-7" points="644.59 46.05 707.64 196.77 707.05 197.48 644 46.77 644.59 46.05"/>
      <polygon class="cls-7" points="732.53 18.81 795.58 169.53 704.53 164.76 641.48 14.04 732.53 18.81"/>
      <g class="cls-2">
        <g class="cls-3">
          <g class="cls-2">
            <path class="cls-7" d="M642.98,47.44l63.05,150.72c-29.86,19.36-71.82,44.53-112.78,68.88l-63.05-150.72c40.96-24.34,82.92-49.51,112.78-68.88"/>
          </g>
        </g>
        <path class="cls-7" d="M642.98,47.44l63.05,150.72c-29.86,19.36-71.82,44.53-112.78,68.88l-63.05-150.72c40.96-24.34,82.92-49.51,112.78-68.88Z"/>
      </g>
      <polygon class="cls-7" points="530.2 116.32 593.25 267.04 590.53 268.66 527.48 117.94 530.2 116.32"/>
      <polygon class="cls-7" points="527.48 117.94 590.53 268.66 534.96 265.75 471.91 115.03 527.48 117.94"/>
      <g class="cls-2">
        <g class="cls-4">
          <g class="cls-2">
            <path class="cls-7" d="M644,46.77l63.05,150.72c-7.11,8.64-15.12,18.72-22.55,28.34l-63.05-150.72c7.43-9.62,15.44-19.69,22.55-28.34"/>
            <path class="cls-7" d="M621.45,75.1l63.05,150.72c-1.37,1.77-2.71,3.52-4.03,5.25l-63.05-150.72c1.32-1.73,2.66-3.48,4.03-5.25"/>
          </g>
        </g>
        <path class="cls-7" d="M644,46.77l63.05,150.72c-8.41,10.24-18.1,22.48-26.58,33.58l-63.05-150.72c8.48-11.11,18.17-23.35,26.58-33.58Z"/>
      </g>
      <polygon class="cls-7" points="617.42 80.35 680.47 231.07 649.68 271.41 586.63 120.69 617.42 80.35"/>
      <polygon class="cls-7" points="733.23 18.5 796.28 169.22 715.38 275.2 652.33 124.48 733.23 18.5"/>
      <path class="cls-7" d="M641.5,13.69l91.73,4.81-80.9,105.98-66.4-3.48,31.05-40.68c8.29-10.85,17.72-22.79,26-32.88-29.86,19.36-71.82,44.53-112.78,68.88l-2.72,1.62-55.57-2.91.06-1.96c.12-4.38.24-9.04.35-13.84.48-19.46,1.01-41.48,2.36-58.42-9.34,13.85-19.51,27.35-23.5,32.58l-29.77,39-63.28-3.32L439.02,3.08l95.02,4.98.1,1.81c1.33,23.59.77,51.85-1.36,68.91,25.27-16.84,77.23-47.01,106.05-63.55l2.67-1.53ZM652.15,124.12l80.39-105.31-91.05-4.77-2.43,1.4c-28.98,16.63-81.34,47.04-106.43,63.8,1.78-17.04,2.35-45.49,1.01-69.21l-.09-1.64-94.34-4.94-80.39,105.31,62.4,3.27,29.51-38.67c4.07-5.33,14.55-19.25,24.03-33.36l.54-.81-.06.74c-1.38,17.03-1.93,39.41-2.42,59.15-.12,4.8-.23,9.46-.35,13.84l-.05,1.78,55.06,2.89,2.48-1.47c41.37-24.59,83.78-50.03,113.68-69.46l.94-.61-.59.72c-8.41,10.24-18.1,22.48-26.58,33.58l-30.79,40.34,65.52,3.43"/>
      <polygon class="cls-7" points="652.33 124.48 715.38 275.2 648.98 271.72 585.93 121 652.33 124.48"/>
    </g>
  </g>
</svg>