<?xml version="1.0" encoding="UTF-8"?>
<svg id="Layer_1" data-name="Layer 1" xmlns="http://www.w3.org/2000/svg" viewBox="0 0 237.3 95">
  <defs>
    <style>
      .cls-1 {
        fill: #231f20;
        stroke-width: 0px;
      }
    </style>
  </defs>
  <path class="cls-1" d="M155.55,0c1.37,2.83,5.26,11.83,2.93,23.28-2.16,10.67-8.45,17.19-10.8,19.42-7.42-1.45-18.71-3.17-32.52-3.24-23.62-.13-23.54,4.7-41.27,3.24-12.08-.99-30.81-4.77-40.33,0-1.38.69-4.5,2.26-4.5,4.5,0,2.47,2.03,4.5,4.5,4.5h177.95l-60.46,34.9c-2.15,1.24-2.89,3.99-1.65,6.15.83,1.44,2.35,2.25,3.9,2.25.76,0,1.54-.19,2.25-.6l81.75-47.2L155.55,0Z"/>
  <path class="cls-1" d="M20.19,47.23c0-2.45,4.7-3.29,4.5-4.5-.31-1.86-11.38-1.78-20.51,1.62C1.24,45.44-.02,46.33,0,47.23c.04,1.54,3.83,2.53,4.18,2.62,6.84.63,13.67,1.25,20.51,1.88-2.49,0-4.5-2.01-4.5-4.5Z"/>
</svg>