<?xml version="1.0" encoding="UTF-8"?>
<svg id="Layer_1" data-name="Layer 1" xmlns="http://www.w3.org/2000/svg" xmlns:xlink="http://www.w3.org/1999/xlink" viewBox="0 0 1001.33 303.07">
  <defs>
    <style>
      .cls-1 {
        fill: none;
        stroke: #f7943d;
        stroke-miterlimit: 10;
      }

      .cls-2 {
        clip-path: url(#clippath-2);
      }

      .cls-3 {
        isolation: isolate;
      }

      .cls-4 {
        clip-path: url(#clippath-6);
      }

      .cls-5 {
        clip-path: url(#clippath-7);
      }

      .cls-6 {
        clip-path: url(#clippath-1);
      }

      .cls-7 {
        clip-path: url(#clippath-4);
      }

      .cls-8 {
        clip-path: url(#clippath);
      }

      .cls-9 {
        clip-path: url(#clippath-3);
      }

      .cls-10 {
        clip-path: url(#clippath-8);
      }

      .cls-11 {
        opacity: .6;
      }

      .cls-12 {
        clip-path: url(#clippath-5);
      }

      .cls-13 {
        fill: #fafbfc;
        stroke-width: 0px;
      }

      .cls-14 {
        opacity: .3;
      }
    </style>
    <clipPath id="clippath">
      <path class="cls-1" d="M169.99,28.17l53.92,128.9c-12.48,9.92-27.84,21.77-42.69,33.23L127.3,61.4c14.85-11.46,30.2-23.31,42.69-33.23Z"/>
    </clipPath>
    <clipPath id="clippath-1">
      <path class="cls-1" d="M107.79,24.96l53.92,128.9c-1.61,4.43-3.14,8.64-4.59,12.65-10.82,29.8-17.41,47.95-22.49,59.8l-53.92-128.9c5.08-11.85,11.67-30,22.49-59.8,1.45-4,2.98-8.21,4.59-12.65Z"/>
    </clipPath>
    <clipPath id="clippath-2">
      <path class="cls-1" d="M127.3,61.4l53.92,128.9c-16.56,12.78-33.65,25.97-46.87,36.57l-53.92-128.9c13.22-10.6,30.31-23.79,46.87-36.57Z"/>
    </clipPath>
    <clipPath id="clippath-3">
      <path class="cls-1" d="M159.93,69.9l53.92,128.9c-21.75,17.64-53.96,42.24-77.53,60.24l-53.92-128.9c23.57-18,55.78-42.61,77.53-60.24Z"/>
    </clipPath>
    <clipPath id="clippath-4">
      <path class="cls-1" d="M216.82,30.42l53.92,128.9c-2.63,10.89-11.79,48.07-19.96,72.01l-53.92-128.9c8.17-23.95,17.33-61.13,19.96-72.01Z"/>
    </clipPath>
    <clipPath id="clippath-5">
      <path class="cls-1" d="M281.04,34.05l53.92,128.9c-4.64,3.78-11.04,8.9-18.46,14.83-19.72,15.76-46.73,37.34-65.95,54.13l-53.92-128.9c19.22-16.8,46.23-38.38,65.95-54.13,7.42-5.93,13.82-11.04,18.46-14.83Z"/>
    </clipPath>
    <clipPath id="clippath-6">
      <path class="cls-1" d="M160.13,69.38l53.92,128.9c-2.9,10.53-6.44,23.82-9.87,36.67-2.97,11.17-6.05,22.7-8.89,32.24l-53.92-128.9c2.85-9.54,5.92-21.07,8.89-32.24,3.42-12.85,6.96-26.14,9.87-36.67Z"/>
    </clipPath>
    <clipPath id="clippath-7">
      <path class="cls-1" d="M866.46,40.81l72.57,178.29c-3.29-7.86-14.69-12.51-33.9-13.52-33.68-1.76-61.59,9.54-78.61,31.84-7.53,9.86-9.83,18.16-7.17,24.51l-72.57-178.29c-2.65-6.34-.35-14.65,7.17-24.51,17.02-22.3,44.94-33.6,78.61-31.84,19.21,1.01,30.61,5.66,33.9,13.52Z"/>
    </clipPath>
    <clipPath id="clippath-8">
      <path class="cls-1" d="M926.31,29.98l72.57,178.29c4.47,10.68,1.23,23.56-9.63,37.79-13.09,17.15-35.16,32.16-62.13,42.25-29.06,10.88-62.54,15.68-96.8,13.89-33.39-1.75-56.56-9.33-66.99-21.91-1.81-2.19-3.24-4.51-4.26-6.96l-72.57-178.29c1.02,2.45,2.44,4.77,4.26,6.96,10.43,12.58,33.6,20.16,66.99,21.91,34.26,1.8,67.74-3.01,96.8-13.89,26.98-10.09,49.04-25.1,62.13-42.25,10.87-14.23,14.1-27.11,9.63-37.79Z"/>
    </clipPath>
  </defs>
  <g>
    <g class="cls-14">
      <polygon class="cls-13" points="662.57 150.82 582.04 256.31 538.14 254.01 572.98 208.37 491.31 204.09 456.46 249.73 412.57 247.43 493.09 141.94 536.99 144.24 505.58 185.39 587.26 189.67 618.67 148.52 662.57 150.82"/>
    </g>
    <g class="cls-11">
      <polygon class="cls-13" points="647.84 111.08 567.32 216.57 523.42 214.27 558.26 168.62 476.58 164.34 441.74 209.99 397.85 207.69 478.38 102.2 522.27 104.5 490.86 145.64 572.53 149.92 603.94 108.78 647.84 111.08"/>
    </g>
    <polygon class="cls-13" points="633.81 65.59 553.29 171.09 509.38 168.79 544.23 123.14 462.56 118.86 427.71 164.51 383.82 162.21 464.35 56.71 508.24 59.01 476.84 100.16 558.51 104.44 589.91 63.29 633.81 65.59"/>
    <g class="cls-3">
      <polygon class="cls-1" points="492.96 21.73 553.08 165.45 501.46 162.75 441.34 19.03 492.96 21.73"/>
      <polygon class="cls-1" points="493.57 21.46 553.69 165.18 522.28 206.33 462.16 62.61 493.57 21.46"/>
      <polygon class="cls-1" points="441.34 19.03 501.46 162.75 416.47 274.09 356.35 130.37 441.34 19.03"/>
      <polygon class="cls-1" points="618.53 28.32 678.65 172.03 627.03 169.33 566.91 25.61 618.53 28.32"/>
      <polygon class="cls-1" points="566.91 25.61 627.03 169.33 595.62 210.47 535.5 66.76 566.91 25.61"/>
      <polygon class="cls-1" points="535.5 66.76 595.62 210.47 521.67 206.6 461.55 62.88 535.5 66.76"/>
      <polygon class="cls-1" points="442.98 87.74 503.1 231.46 468.26 277.11 408.13 133.39 442.98 87.74"/>
      <polygon class="cls-1" points="408.13 133.39 468.26 277.11 415.86 274.36 355.74 130.64 408.13 133.39"/>
      <polygon class="cls-1" points="516.16 91.57 576.28 235.29 503.1 231.46 442.98 87.74 516.16 91.57"/>
      <polygon class="cls-1" points="516.76 91.3 576.89 235.02 542.04 280.67 481.92 136.95 516.76 91.3"/>
      <polygon class="cls-1" points="619.14 28.04 679.26 171.76 593.83 283.69 533.71 139.97 619.14 28.04"/>
      <path class="cls-1" d="M566.74,25.3l52.4,2.75-85.43,111.93-52.4-2.75,34.85-45.65-73.17-3.83-34.85,45.65-52.4-2.75,85.43-111.93,52.4,2.75-31.41,41.15,73.17,3.83,31.41-41.15ZM533.54,139.66l84.99-111.34-51.62-2.71-31.41,41.15-73.95-3.88,31.41-41.15-51.62-2.71-84.99,111.34,51.62,2.71,34.85-45.65,73.95,3.88-34.85,45.65,51.62,2.71"/>
      <polygon class="cls-1" points="533.71 139.97 593.83 283.69 541.43 280.94 481.31 137.22 533.71 139.97"/>
    </g>
  </g>
  <g>
    <g class="cls-11">
      <path class="cls-13" d="M311.88,114.9l42.63,2.23-135.5,102.61-45.48-2.38c7.14-23.92,15.32-58.95,21.95-77.39-22,18.37-67.42,52.92-94.46,73.59l-45.44-2.38,28.84-108.2,46.82,2.45c-17.98,49.47-25.73,71.42-32.2,83.15,22.8-18.95,70.43-54.65,101.72-79.51l39.44,2.07c-5.01,20.78-15.72,62.8-23.85,82.45,24.76-22.86,75.88-62.67,95.53-78.69Z"/>
    </g>
    <g class="cls-14">
      <path class="cls-13" d="M326.34,150.14l42.64,2.23-135.5,102.62-45.48-2.38c7.14-23.92,15.32-58.95,21.95-77.39-22,18.37-67.42,52.92-94.46,73.59l-45.44-2.38,28.85-108.21,46.82,2.45c-17.98,49.47-25.73,71.42-32.2,83.15,22.8-18.95,70.42-54.64,101.71-79.51l39.44,2.07c-5.02,20.79-15.72,62.8-23.86,82.45,24.77-22.86,75.89-62.68,95.54-78.7Z"/>
    </g>
    <path class="cls-13" d="M297.75,74.26l42.64,2.23-135.51,102.61-45.47-2.38c7.14-23.92,15.32-58.95,21.95-77.39-21.99,18.37-67.42,52.93-94.46,73.59l-45.44-2.38,28.85-108.2,46.82,2.45c-17.98,49.47-25.73,71.42-32.21,83.15,22.8-18.95,70.44-54.65,101.71-79.51l39.45,2.07c-5.02,20.79-15.73,62.79-23.85,82.45,24.76-22.86,75.88-62.67,95.53-78.69Z"/>
    <g class="cls-3">
      <polygon class="cls-1" points="108.09 23 162.02 151.9 107.19 149.03 53.26 20.13 108.09 23"/>
      <polygon class="cls-1" points="108.61 22.72 162.53 151.62 161.71 153.86 107.79 24.96 108.61 22.72"/>
      <polygon class="cls-1" points="172.26 26.36 226.19 155.26 223.91 157.07 169.99 28.17 172.26 26.36"/>
      <g class="cls-3">
        <g class="cls-8">
          <g class="cls-3">
            <path class="cls-1" d="M169.99,28.17l53.92,128.9c-12.48,9.92-27.84,21.77-42.69,33.23L127.3,61.4c14.85-11.46,30.2-23.31,42.69-33.23"/>
          </g>
        </g>
        <path class="cls-1" d="M169.99,28.17l53.92,128.9c-12.48,9.92-27.84,21.77-42.69,33.23L127.3,61.4c14.85-11.46,30.2-23.31,42.69-33.23Z"/>
      </g>
      <polygon class="cls-1" points="216.81 28.7 270.74 157.6 226.19 155.26 172.26 26.36 216.81 28.7"/>
      <polygon class="cls-1" points="217.3 28.42 271.23 157.32 270.74 159.32 216.82 30.42 217.3 28.42"/>
      <polygon class="cls-1" points="53.26 20.13 107.19 149.03 76.82 262.92 22.9 134.02 53.26 20.13"/>
      <g class="cls-3">
        <g class="cls-6">
          <g class="cls-3">
            <path class="cls-1" d="M107.79,24.96l53.92,128.9c-1.61,4.43-3.14,8.64-4.59,12.65-10.82,29.8-17.41,47.95-22.49,59.8l-53.92-128.9c5.08-11.85,11.67-30,22.49-59.8,1.45-4,2.98-8.21,4.59-12.65"/>
          </g>
        </g>
        <path class="cls-1" d="M107.79,24.96l53.92,128.9c-1.61,4.43-3.14,8.64-4.59,12.65-10.82,29.8-17.41,47.95-22.49,59.8l-53.92-128.9c5.08-11.85,11.67-30,22.49-59.8,1.45-4,2.98-8.21,4.59-12.65Z"/>
      </g>
      <g class="cls-3">
        <g class="cls-2">
          <g class="cls-3">
            <path class="cls-1" d="M127.3,61.4l53.92,128.9c-16.56,12.78-33.65,25.97-46.87,36.57l-53.92-128.9c13.22-10.6,30.31-23.79,46.87-36.57"/>
          </g>
        </g>
        <path class="cls-1" d="M127.3,61.4l53.92,128.9c-16.56,12.78-33.65,25.97-46.87,36.57l-53.92-128.9c13.22-10.6,30.31-23.79,46.87-36.57Z"/>
      </g>
      <polygon class="cls-1" points="283.33 32.18 337.25 161.08 334.97 162.95 281.04 34.05 283.33 32.18"/>
      <g class="cls-3">
        <g class="cls-9">
          <g class="cls-3">
            <path class="cls-1" d="M159.93,69.9l53.92,128.9c-18.17,14.73-43.63,34.32-65.26,50.87l-53.92-128.9c21.63-16.54,47.09-36.13,65.26-50.87"/>
            <path class="cls-1" d="M94.67,120.76l53.92,128.9c-4.27,3.26-8.39,6.41-12.27,9.38l-53.92-128.9c3.88-2.97,8-6.11,12.27-9.38"/>
          </g>
        </g>
        <path class="cls-1" d="M159.93,69.9l53.92,128.9c-21.75,17.64-53.96,42.24-77.53,60.24l-53.92-128.9c23.57-18,55.78-42.61,77.53-60.24Z"/>
      </g>
      <polygon class="cls-1" points="73.45 136.98 127.37 265.88 76.33 263.2 22.41 134.3 73.45 136.98"/>
      <polygon class="cls-1" points="82.4 130.14 136.32 259.04 127.37 265.88 73.45 136.98 82.4 130.14"/>
      <polygon class="cls-1" points="334.01 34.84 387.94 163.74 337.25 161.08 283.33 32.18 334.01 34.84"/>
      <g class="cls-3">
        <g class="cls-7">
          <g class="cls-3">
            <path class="cls-1" d="M216.82,30.42l53.92,128.9c-.36,1.5-.85,3.49-1.43,5.87l-53.92-128.9c.59-2.39,1.07-4.38,1.43-5.87"/>
            <path class="cls-1" d="M215.38,36.3l53.92,128.9c-3.69,14.98-11.48,45.48-18.53,66.14l-53.92-128.9c7.05-20.66,14.84-51.16,18.53-66.14"/>
          </g>
        </g>
        <path class="cls-1" d="M216.82,30.42l53.92,128.9c-2.63,10.89-11.79,48.07-19.96,72.01l-53.92-128.9c8.17-23.95,17.33-61.13,19.96-72.01Z"/>
      </g>
      <g class="cls-3">
        <g class="cls-12">
          <g class="cls-3">
            <path class="cls-1" d="M281.04,34.05l53.92,128.9c-4.64,3.78-11.04,8.9-18.46,14.83-19.72,15.76-46.73,37.34-65.95,54.13l-53.92-128.9c19.22-16.8,46.23-38.38,65.95-54.13,7.42-5.93,13.82-11.04,18.46-14.83"/>
          </g>
        </g>
        <path class="cls-1" d="M281.04,34.05l53.92,128.9c-4.64,3.78-11.04,8.9-18.46,14.83-19.72,15.76-46.73,37.34-65.95,54.13l-53.92-128.9c19.22-16.8,46.23-38.38,65.95-54.13,7.42-5.93,13.82-11.04,18.46-14.83Z"/>
      </g>
      <g class="cls-3">
        <g class="cls-4">
          <g class="cls-3">
            <path class="cls-1" d="M160.13,69.38l53.92,128.9c-2.9,10.53-6.44,23.82-9.87,36.67-2.97,11.17-6.05,22.7-8.89,32.24l-53.92-128.9c2.85-9.54,5.92-21.07,8.89-32.24,3.42-12.85,6.96-26.14,9.87-36.67"/>
          </g>
        </g>
        <path class="cls-1" d="M160.13,69.38l53.92,128.9c-2.9,10.53-6.44,23.82-9.87,36.67-2.97,11.17-6.05,22.7-8.89,32.24l-53.92-128.9c2.85-9.54,5.92-21.07,8.89-32.24,3.42-12.85,6.96-26.14,9.87-36.67Z"/>
      </g>
      <polygon class="cls-1" points="141.36 138.29 195.29 267.19 194.72 269.1 140.79 140.2 141.36 138.29"/>
      <polygon class="cls-1" points="334.81 34.57 388.73 163.48 245.34 272.06 191.42 143.16 334.81 34.57"/>
      <path class="cls-1" d="M283.28,31.87l51.53,2.7-143.39,108.59-51.12-2.68.63-2.12c2.85-9.54,5.92-21.07,8.88-32.21,3.39-12.7,6.88-25.81,10.11-36.25-21.75,17.64-53.96,42.24-77.53,60.24l-8.95,6.84-51.04-2.68L52.93,19.8l55.67,2.92-.81,2.24c-1.61,4.43-3.14,8.64-4.59,12.65-10.82,29.8-17.41,47.95-22.49,59.8,13.14-10.53,29.98-23.52,46.26-36.09,14.89-11.49,30.24-23.34,42.72-33.26l2.52-2,45.09,2.36-.48,2.01c-2.63,10.89-11.79,48.07-19.96,72.01,19.19-16.73,45.89-38.07,65.43-53.68,7.42-5.93,13.82-11.04,18.46-14.82l2.53-2.06ZM191.38,142.85l142.64-108.01-50.68-2.66-2.29,1.86c-4.64,3.78-11.04,8.9-18.46,14.83-19.72,15.76-46.73,37.34-65.95,54.13,7.84-23.93,17.1-61.54,19.75-72.49l.44-1.82-44.55-2.33-2.28,1.81c-12.48,9.92-27.84,21.77-42.69,33.23-16.56,12.78-33.65,25.97-46.87,36.57,4.75-11.86,11.37-30.1,22.33-60.31,1.45-4,2.98-8.21,4.59-12.64l.74-2.03-54.83-2.87-30.37,113.9,50.51,2.65,8.71-6.65c23.75-18.14,56.27-42.98,78.01-60.64-2.9,10.53-6.44,23.82-9.87,36.67-2.97,11.17-6.05,22.7-8.89,32.24l-.57,1.91,50.58,2.65"/>
      <polygon class="cls-1" points="191.42 143.16 245.34 272.06 194.22 269.38 140.3 140.48 191.42 143.16"/>
    </g>
  </g>
  <g>
    <path class="cls-13" d="M872.31,54.2c63.79,3.34,86.48,28.69,60.01,63.37-24.07,31.54-81.24,56.78-152.06,53.07-68.43-3.59-84.52-31.31-59.75-63.77,25.17-32.98,84.06-56.23,151.8-52.68ZM797.25,150.81c41.94,2.2,70.72-15.28,86.13-35.47,16.37-21.44,12.33-39.18-28.32-41.31-39.39-2.06-68.65,12.84-85.49,34.91-16.89,22.12-10.99,39.84,27.67,41.87"/>
    <g class="cls-11">
      <path class="cls-13" d="M888.42,100.3c63.79,3.34,86.48,28.69,60,63.38-24.07,31.54-81.24,56.78-152.06,53.07-68.43-3.59-84.52-31.31-59.75-63.77,25.17-32.98,84.07-56.24,151.81-52.69ZM813.36,196.91c41.94,2.2,70.72-15.28,86.13-35.47,16.37-21.44,12.33-39.18-28.32-41.31-39.39-2.06-68.65,12.84-85.49,34.91s-10.98,39.84,27.67,41.87"/>
    </g>
    <g class="cls-14">
      <path class="cls-13" d="M906.17,140.26c63.79,3.34,86.48,28.69,60,63.38-24.07,31.54-81.23,56.78-152.06,53.07-68.43-3.59-84.53-31.3-59.75-63.77,25.17-32.98,84.07-56.23,151.8-52.68ZM831.12,236.87c41.94,2.2,70.71-15.27,86.13-35.47,16.36-21.43,12.33-39.17-28.32-41.3-39.39-2.06-68.65,12.84-85.49,34.91-16.88,22.12-10.98,39.84,27.68,41.86"/>
    </g>
    <g class="cls-3">
      <g class="cls-3">
        <g class="cls-5">
          <g class="cls-3">
            <path class="cls-1" d="M866.46,40.81l72.57,178.29c-3.29-7.86-14.69-12.51-33.9-13.52-2.2-.12-4.37-.17-6.51-.18l-72.57-178.29c2.15,0,4.32.06,6.51.18,19.21,1.01,30.61,5.66,33.9,13.52"/>
            <path class="cls-1" d="M826.05,27.12l72.57,178.29c-3.06,0-6.06.1-9.01.31l-72.57-178.29c2.95-.22,5.95-.32,9.01-.31"/>
            <path class="cls-1" d="M817.03,27.43l72.57,178.29c-2.04.15-4.05.35-6.03.6l-72.57-178.29c1.98-.25,3.99-.45,6.03-.6"/>
            <path class="cls-1" d="M811.01,28.03l72.57,178.29c-1.6.2-3.18.44-4.75.72l-72.57-178.29c1.56-.27,3.15-.51,4.75-.72"/>
            <path class="cls-1" d="M806.26,28.75l72.57,178.29c-1.34.23-2.67.49-3.98.77l-72.57-178.29c1.31-.28,2.64-.54,3.98-.77"/>
            <path class="cls-1" d="M802.28,29.52l72.57,178.29c-1.18.25-2.34.53-3.5.82l-72.57-178.29c1.15-.29,2.32-.57,3.5-.82"/>
            <path class="cls-1" d="M798.78,30.34l72.57,178.29c-1.06.27-2.11.55-3.14.86l-72.57-178.29c1.04-.3,2.08-.59,3.14-.86"/>
            <path class="cls-1" d="M795.64,31.2l72.57,178.29c-.97.28-1.93.58-2.88.89l-72.57-178.29c.95-.31,1.91-.61,2.88-.89"/>
            <path class="cls-1" d="M792.76,32.09l72.57,178.29c-.93.3-1.85.62-2.76.95l-72.57-178.29c.91-.33,1.83-.65,2.76-.95"/>
            <path class="cls-1" d="M789.99,33.04l72.57,178.29c-.89.32-1.78.66-2.65,1.01l-72.57-178.29c.88-.35,1.76-.69,2.65-1.01"/>
            <path class="cls-1" d="M787.34,34.06l72.57,178.29c-.89.35-1.76.72-2.63,1.1l-72.57-178.29c.87-.38,1.74-.75,2.63-1.1"/>
            <path class="cls-1" d="M784.71,35.16l72.57,178.29c-.89.39-1.77.8-2.64,1.21l-72.57-178.29c.87-.42,1.75-.82,2.64-1.21"/>
            <path class="cls-1" d="M782.07,36.37l72.57,178.29c-.91.44-1.81.89-2.69,1.36l-72.57-178.29c.89-.47,1.78-.92,2.69-1.36"/>
            <path class="cls-1" d="M779.38,37.73l72.57,178.29c-1.01.53-2.01,1.09-3,1.66l-72.57-178.29c.98-.57,1.98-1.13,3-1.66"/>
            <path class="cls-1" d="M776.38,39.39l72.57,178.29c-1.18.69-2.33,1.4-3.47,2.14l-72.57-178.29c1.13-.74,2.29-1.45,3.47-2.14"/>
            <path class="cls-1" d="M772.92,41.53l72.57,178.29c-1.66,1.09-3.28,2.23-4.85,3.44l-72.57-178.29c1.57-1.2,3.18-2.35,4.85-3.44"/>
            <path class="cls-1" d="M768.07,44.96l72.57,178.29c-5.16,3.97-9.79,8.56-13.82,13.77l-72.57-178.29c4.03-5.21,8.66-9.81,13.82-13.77"/>
            <path class="cls-1" d="M754.25,58.73l72.57,178.29c-.1.13-.2.26-.31.4-1.47,1.93-2.74,3.79-3.82,5.6l-72.57-178.29c1.07-1.8,2.34-3.67,3.82-5.6.1-.13.2-.27.31-.4"/>
            <path class="cls-1" d="M750.13,64.73l72.57,178.29c-.76,1.28-1.43,2.53-1.99,3.75l-72.57-178.29c.56-1.22,1.23-2.47,1.99-3.75"/>
            <path class="cls-1" d="M748.14,68.48l72.57,178.29c-.44.95-.82,1.88-1.14,2.79l-72.57-178.29c.32-.91.7-1.84,1.14-2.79"/>
            <path class="cls-1" d="M747,71.28l72.57,178.29c-.27.78-.51,1.55-.69,2.3l-72.57-178.29c.19-.75.42-1.52.69-2.3"/>
            <path class="cls-1" d="M746.31,73.58l72.57,178.29c-.17.69-.3,1.36-.4,2.02l-72.57-178.29c.1-.66.23-1.33.4-2.02"/>
            <path class="cls-1" d="M745.91,75.6l72.57,178.29c-.09.62-.15,1.23-.18,1.83l-72.57-178.29c.03-.6.09-1.21.18-1.83"/>
            <path class="cls-1" d="M745.73,77.43l72.57,178.29c-.03.57-.02,1.13.01,1.68l-72.57-178.29c-.03-.55-.04-1.11-.01-1.68"/>
            <path class="cls-1" d="M745.74,79.11l72.57,178.29c.03.54.09,1.07.18,1.58l-72.57-178.29c-.09-.52-.15-1.04-.18-1.58"/>
            <path class="cls-1" d="M745.92,80.7l72.57,178.29c.09.52.2,1.02.35,1.52l-72.57-178.29c-.14-.5-.26-1-.35-1.52"/>
            <path class="cls-1" d="M746.27,82.22l72.57,178.29c.14.48.31.96.5,1.42l-72.57-178.29c-.19-.46-.36-.94-.5-1.42"/>
          </g>
        </g>
        <path class="cls-1" d="M866.46,40.81l72.57,178.29c-3.29-7.86-14.69-12.51-33.9-13.52-33.68-1.76-61.59,9.54-78.61,31.84-7.53,9.86-9.83,18.16-7.17,24.51l-72.57-178.29c-2.65-6.34-.35-14.65,7.17-24.51,17.02-22.3,44.94-33.6,78.61-31.84,19.21,1.01,30.61,5.66,33.9,13.52Z"/>
      </g>
      <g class="cls-3">
        <g class="cls-10">
          <g class="cls-3">
            <path class="cls-1" d="M926.31,29.98l72.57,178.29c.37.88.68,1.77.94,2.67l-72.57-178.29c-.26-.9-.58-1.79-.94-2.67"/>
            <path class="cls-1" d="M927.26,32.65l72.57,178.29c.26.9.47,1.82.63,2.76l-72.57-178.29c-.16-.93-.37-1.85-.63-2.76"/>
            <path class="cls-1" d="M927.89,35.4l72.57,178.29c.16.91.26,1.84.32,2.78l-72.57-178.29c-.06-.94-.16-1.87-.32-2.78"/>
            <path class="cls-1" d="M928.21,38.19l72.57,178.29c.06.94.06,1.9.02,2.87l-72.57-178.29c.04-.97.04-1.93-.02-2.87"/>
            <path class="cls-1" d="M928.23,41.06l72.57,178.29c-.04.99-.14,1.99-.29,3.01l-72.57-178.29c.15-1.02.24-2.02.29-3.01"/>
            <path class="cls-1" d="M927.94,44.07l72.57,178.29c-.15,1.06-.37,2.14-.64,3.23l-72.57-178.29c.27-1.09.48-2.17.64-3.23"/>
            <path class="cls-1" d="M927.31,47.3l72.57,178.29c-.29,1.19-.65,2.39-1.08,3.6l-72.57-178.29c.43-1.22.79-2.42,1.08-3.6"/>
            <path class="cls-1" d="M926.23,50.9l72.57,178.29c-.48,1.36-1.04,2.75-1.69,4.15l-72.57-178.29c.65-1.4,1.21-2.79,1.69-4.15"/>
            <path class="cls-1" d="M924.54,55.05l72.57,178.29c-.79,1.71-1.71,3.45-2.76,5.22l-72.57-178.29c1.05-1.76,1.97-3.5,2.76-5.22"/>
            <path class="cls-1" d="M921.78,60.27l72.57,178.29c-1.45,2.45-3.15,4.95-5.1,7.5-.11.14-.22.28-.33.42l-72.57-178.29c.11-.14.22-.28.33-.42,1.94-2.55,3.64-5.05,5.1-7.5"/>
            <path class="cls-1" d="M916.36,68.19l72.57,178.29c-5.17,6.69-11.71,13.05-19.38,18.91l-72.57-178.29c7.66-5.86,14.2-12.22,19.38-18.91"/>
            <path class="cls-1" d="M896.98,87.1l72.57,178.29c-2.72,2.08-5.57,4.09-8.56,6.04l-72.57-178.29c2.99-1.95,5.84-3.96,8.56-6.04"/>
            <path class="cls-1" d="M888.42,93.14l72.57,178.29c-2.15,1.4-4.36,2.76-6.64,4.09l-72.57-178.29c2.28-1.32,4.5-2.69,6.64-4.09"/>
            <path class="cls-1" d="M881.78,97.23l72.57,178.29c-1.95,1.13-3.94,2.24-5.98,3.31l-72.57-178.29c2.04-1.07,4.03-2.18,5.98-3.31"/>
            <path class="cls-1" d="M875.8,100.54l72.57,178.29c-1.88.99-3.8,1.95-5.75,2.89l-72.57-178.29c1.95-.94,3.87-1.9,5.75-2.89"/>
            <path class="cls-1" d="M870.05,103.43l72.57,178.29c-1.86.89-3.74,1.76-5.66,2.6l-72.57-178.29c1.92-.84,3.81-1.71,5.66-2.6"/>
            <path class="cls-1" d="M864.39,106.03l72.57,178.29c-1.88.83-3.8,1.63-5.74,2.41l-72.57-178.29c1.94-.78,3.85-1.58,5.74-2.41"/>
            <path class="cls-1" d="M858.65,108.44l72.57,178.29c-1.35.54-2.72,1.07-4.1,1.59-.61.23-1.23.46-1.85.68l-72.57-178.29c.62-.22,1.23-.45,1.85-.68,1.38-.52,2.75-1.05,4.1-1.59"/>
            <path class="cls-1" d="M852.7,110.7l72.57,178.29c-2.06.75-4.14,1.46-6.24,2.15l-72.57-178.29c2.1-.69,4.18-1.4,6.24-2.15"/>
            <path class="cls-1" d="M846.46,112.86l72.57,178.29c-2.2.72-4.42,1.41-6.67,2.06l-72.57-178.29c2.24-.65,4.47-1.34,6.67-2.06"/>
            <path class="cls-1" d="M839.8,114.92l72.57,178.29c-2.38.69-4.79,1.35-7.21,1.97l-72.57-178.29c2.43-.62,4.83-1.27,7.21-1.97"/>
            <path class="cls-1" d="M832.59,116.88l72.57,178.29c-2.65.67-5.33,1.3-8.03,1.89l-72.57-178.29c2.7-.58,5.38-1.21,8.03-1.89"/>
            <path class="cls-1" d="M824.56,118.77l72.57,178.29c-3.02.65-6.07,1.25-9.15,1.79l-72.57-178.29c3.08-.54,6.13-1.13,9.15-1.79"/>
            <path class="cls-1" d="M815.41,120.56l72.57,178.29c-3.58.63-7.19,1.17-10.84,1.64l-72.57-178.29c3.65-.47,7.26-1.02,10.84-1.64"/>
            <path class="cls-1" d="M804.57,122.2l72.57,178.29c-4.52.58-9.09,1.04-13.69,1.38l-72.57-178.29c4.6-.34,9.17-.8,13.69-1.38"/>
            <path class="cls-1" d="M790.88,123.58l72.57,178.29c-6.41.47-12.9.7-19.43.7l-72.57-178.29c6.53,0,13.02-.23,19.43-.7"/>
            <path class="cls-1" d="M771.45,124.28l72.57,178.29c-4.55,0-9.12-.13-13.7-.37-33.39-1.75-56.56-9.33-66.99-21.91-1.81-2.19-3.24-4.51-4.26-6.96l-72.57-178.29c1.02,2.45,2.44,4.77,4.26,6.96,10.43,12.58,33.6,20.16,66.99,21.91,4.58.24,9.15.36,13.7.37"/>
          </g>
        </g>
        <path class="cls-1" d="M926.31,29.98l72.57,178.29c4.47,10.68,1.23,23.56-9.63,37.79-13.09,17.15-35.16,32.16-62.13,42.25-29.06,10.88-62.54,15.68-96.8,13.89-33.39-1.75-56.56-9.33-66.99-21.91-1.81-2.19-3.24-4.51-4.26-6.96l-72.57-178.29c1.02,2.45,2.44,4.77,4.26,6.96,10.43,12.58,33.6,20.16,66.99,21.91,34.26,1.8,67.74-3.01,96.8-13.89,26.98-10.09,49.04-25.1,62.13-42.25,10.87-14.23,14.1-27.11,9.63-37.79Z"/>
      </g>
      <path class="cls-1" d="M920.79,21.58c11.2,12.02,9.78,27.99-4.11,46.18-13.09,17.15-35.16,32.16-62.13,42.25-29.06,10.88-62.54,15.68-96.8,13.89-33.39-1.75-56.56-9.33-66.99-21.91-4.96-5.98-6.98-12.97-6-20.78.96-7.68,4.79-15.95,11.4-24.6,13.33-17.46,35.95-32.58,63.69-42.58,28.76-10.37,61.6-14.92,94.99-13.17,32.08,1.68,54.89,8.85,65.95,20.72ZM779.78,97.47c45.61,2.39,69.24-19.27,79.26-32.4,17.22-22.56,7.82-35.98-26.48-37.78-33.68-1.76-61.59,9.54-78.61,31.84-17,22.27-7.34,36.6,25.83,38.34"/>
    </g>
  </g>
</svg>